<?xml version="1.0" standalone="no"?><!-- Generator: Gravit.io --><svg xmlns="http://www.w3.org/2000/svg" xmlns:xlink="http://www.w3.org/1999/xlink" style="isolation:isolate" viewBox="0 0 1258 336.974" width="1258" height="336.974"><defs><clipPath id="_clipPath_m2Y6Fpq09Mr9CEMcFh7zLr9u1JwrUJm1"><rect width="1258" height="336.974"/></clipPath></defs><g clip-path="url(#_clipPath_m2Y6Fpq09Mr9CEMcFh7zLr9u1JwrUJm1)"><defs><filter id="vB0UfEZAx8NQriUgpHlVmaLXgDPyL3SQ" x="-200%" y="-200%" width="400%" height="400%"><feOffset xmlns="http://www.w3.org/2000/svg" in="SourceAlpha" result="offOut" dx="0" dy="0"/><feGaussianBlur xmlns="http://www.w3.org/2000/svg" in="offOut" result="blurOut" stdDeviation="7.5"/><feComponentTransfer xmlns="http://www.w3.org/2000/svg" in="blurOut" result="opacOut"><feFuncA xmlns="http://www.w3.org/2000/svg" type="table" tableValues="0 0.5"/></feComponentTransfer><feBlend xmlns="http://www.w3.org/2000/svg" in="SourceGraphic" in2="opacOut" mode="normal"/></filter></defs><g filter="url(#vB0UfEZAx8NQriUgpHlVmaLXgDPyL3SQ)"><path d="M 24.73 22.5 L 283.27 22.5 C 288.64 22.5 293 26.86 293 32.23 L 293 290.77 C 293 296.14 288.64 300.5 283.27 300.5 L 24.73 300.5 C 19.36 300.5 15 296.14 15 290.77 L 15 32.23 C 15 26.86 19.36 22.5 24.73 22.5 Z" style="stroke:none;fill:#FFFFFF;stroke-miterlimit:10;"/></g><rect x="43" y="51.5" width="48" height="48" transform="matrix(1,0,0,1,0,0)" fill="none" vector-effect="non-scaling-stroke" stroke-width="1" stroke="rgb(0,38,60)" stroke-linejoin="miter" stroke-linecap="square" stroke-miterlimit="3"/><rect x="43" y="109.5" width="48" height="48" transform="matrix(1,0,0,1,0,0)" fill="none" vector-effect="non-scaling-stroke" stroke-width="1" stroke="rgb(10,62,104)" stroke-linejoin="miter" stroke-linecap="square" stroke-miterlimit="3"/><rect x="43" y="167.5" width="48" height="48" transform="matrix(1,0,0,1,0,0)" fill="none" vector-effect="non-scaling-stroke" stroke-width="1" stroke="rgb(104,179,222)" stroke-linejoin="miter" stroke-linecap="square" stroke-miterlimit="3"/><rect x="101" y="51.5" width="48" height="48" transform="matrix(1,0,0,1,0,0)" fill="none" vector-effect="non-scaling-stroke" stroke-width="1" stroke="rgb(10,62,104)" stroke-linejoin="miter" stroke-linecap="square" stroke-miterlimit="3"/><rect x="101" y="109.5" width="48" height="48" transform="matrix(1,0,0,1,0,0)" fill="none" vector-effect="non-scaling-stroke" stroke-width="1" stroke="rgb(104,179,222)" stroke-linejoin="miter" stroke-linecap="square" stroke-miterlimit="3"/><rect x="101" y="225.5" width="48" height="48" transform="matrix(1,0,0,1,0,0)" fill="none" vector-effect="non-scaling-stroke" stroke-width="1" stroke="rgb(104,180,222)" stroke-linejoin="miter" stroke-linecap="square" stroke-miterlimit="3"/><rect x="159" y="51.5" width="48" height="48" transform="matrix(1,0,0,1,0,0)" fill="none" vector-effect="non-scaling-stroke" stroke-width="1" stroke="rgb(104,179,222)" stroke-linejoin="miter" stroke-linecap="square" stroke-miterlimit="3"/><rect x="217" y="109.5" width="48" height="48" transform="matrix(1,0,0,1,0,0)" fill="none" vector-effect="non-scaling-stroke" stroke-width="1" stroke="rgb(104,180,222)" stroke-linejoin="miter" stroke-linecap="square" stroke-miterlimit="3"/><rect x="159" y="167.5" width="48" height="48" transform="matrix(1,0,0,1,0,0)" fill="none" vector-effect="non-scaling-stroke" stroke-width="1" stroke="rgb(104,180,222)" stroke-linejoin="miter" stroke-linecap="square" stroke-miterlimit="3"/><rect x="217" y="167.5" width="48" height="48" transform="matrix(1,0,0,1,0,0)" fill="none" vector-effect="non-scaling-stroke" stroke-width="1" stroke="rgb(10,62,104)" stroke-linejoin="miter" stroke-linecap="square" stroke-miterlimit="3"/><rect x="159" y="225.5" width="48" height="48" transform="matrix(1,0,0,1,0,0)" fill="none" vector-effect="non-scaling-stroke" stroke-width="1" stroke="rgb(10,62,104)" stroke-linejoin="miter" stroke-linecap="square" stroke-miterlimit="3"/><rect x="217" y="225.5" width="48" height="48" transform="matrix(1,0,0,1,0,0)" fill="none" vector-effect="non-scaling-stroke" stroke-width="1" stroke="rgb(0,38,60)" stroke-linejoin="miter" stroke-linecap="square" stroke-miterlimit="3"/><g id="Group"><path d=" M 327.818 232.042 L 327.818 232.042 L 327.818 258.048 L 327.818 258.048 Q 327.818 268.027 327.44 277.704 L 327.44 277.704 L 327.44 277.704 Q 327.062 287.381 326.608 296.755 L 326.608 296.755 L 326.608 296.755 Q 333.866 296.453 340.594 296.453 L 340.594 296.453 L 340.594 296.453 Q 347.322 296.453 354.58 296.453 L 354.58 296.453 L 354.58 296.453 Q 361.535 296.453 368.49 296.453 L 368.49 296.453 L 368.49 296.453 Q 375.446 296.453 382.401 296.755 L 382.401 296.755 L 382.401 296.755 Q 381.645 294.336 381.645 292.673 L 381.645 292.673 L 381.645 292.673 Q 381.645 290.858 382.401 288.137 L 382.401 288.137 L 382.401 288.137 Q 371.061 289.649 361.233 289.876 L 361.233 289.876 L 361.233 289.876 Q 351.405 290.102 340.67 290.102 L 340.67 290.102 L 340.67 290.102 Q 340.518 279.065 340.367 265.079 L 340.367 265.079 L 340.367 265.079 Q 340.216 251.093 340.216 232.042 L 340.216 232.042 L 340.216 232.042 Q 340.216 222.062 340.594 212.461 L 340.594 212.461 L 340.594 212.461 Q 340.972 202.86 341.426 192.881 L 341.426 192.881 L 341.426 192.881 Q 339.46 193.183 337.646 193.41 L 337.646 193.41 L 337.646 193.41 Q 335.831 193.637 334.017 193.637 L 334.017 193.637 L 334.017 193.637 Q 332.202 193.637 330.388 193.41 L 330.388 193.41 L 330.388 193.41 Q 328.574 193.183 326.608 192.881 L 326.608 192.881 L 326.608 192.881 Q 327.062 202.86 327.44 212.461 L 327.44 212.461 L 327.44 212.461 Q 327.818 222.062 327.818 232.042 Z " fill="none" vector-effect="non-scaling-stroke" stroke-width="2" stroke="rgb(0,0,0)" stroke-opacity="0.5" stroke-linejoin="miter" stroke-linecap="square" stroke-miterlimit="3"/><path d=" M 394.346 232.042 L 394.346 232.042 L 394.346 258.048 L 394.346 258.048 Q 394.346 268.027 393.968 277.704 L 393.968 277.704 L 393.968 277.704 Q 393.59 287.381 393.136 296.755 L 393.136 296.755 L 393.136 296.755 Q 396.614 296.453 400.545 296.453 L 400.545 296.453 L 400.545 296.453 Q 404.476 296.453 407.954 296.755 L 407.954 296.755 L 407.954 296.755 Q 407.5 287.381 407.122 277.704 L 407.122 277.704 L 407.122 277.704 Q 406.744 268.027 406.744 258.048 L 406.744 258.048 L 406.744 232.042 L 406.744 232.042 Q 406.744 222.062 407.122 212.461 L 407.122 212.461 L 407.122 212.461 Q 407.5 202.86 407.954 192.881 L 407.954 192.881 L 407.954 192.881 Q 405.988 193.183 404.174 193.41 L 404.174 193.41 L 404.174 193.41 Q 402.359 193.637 400.545 193.637 L 400.545 193.637 L 400.545 193.637 Q 398.73 193.637 396.916 193.41 L 396.916 193.41 L 396.916 193.41 Q 395.102 193.183 393.136 192.881 L 393.136 192.881 L 393.136 192.881 Q 393.59 202.86 393.968 212.461 L 393.968 212.461 L 393.968 212.461 Q 394.346 222.062 394.346 232.042 Z " fill="none" vector-effect="non-scaling-stroke" stroke-width="2" stroke="rgb(0,0,0)" stroke-opacity="0.5" stroke-linejoin="miter" stroke-linecap="square" stroke-miterlimit="3"/><path d=" M 513.945 211.327 L 513.945 211.327 L 515.759 211.327 L 515.759 211.327 Q 516.062 208.454 517.044 205.128 L 517.044 205.128 L 517.044 205.128 Q 518.027 201.802 519.237 199.685 L 519.237 199.685 L 519.237 199.685 Q 516.515 198.324 513.038 196.812 L 513.038 196.812 L 513.038 196.812 Q 509.56 195.3 504.948 193.939 L 504.948 193.939 L 504.948 193.939 Q 500.337 192.578 494.364 191.747 L 494.364 191.747 L 494.364 191.747 Q 488.392 190.915 480.681 190.915 L 480.681 190.915 L 480.681 190.915 Q 467.375 190.915 456.413 194.544 L 456.413 194.544 L 456.413 194.544 Q 445.451 198.173 437.74 205.128 L 437.74 205.128 L 437.74 205.128 Q 430.029 212.083 425.795 222.138 L 425.795 222.138 L 425.795 222.138 Q 421.562 232.193 421.562 245.045 L 421.562 245.045 L 421.562 245.045 Q 421.562 258.35 425.644 268.481 L 425.644 268.481 L 425.644 268.481 Q 429.726 278.611 437.286 285.415 L 437.286 285.415 L 437.286 285.415 Q 444.846 292.219 455.657 295.47 L 455.657 295.47 L 455.657 295.47 Q 466.468 298.721 479.925 298.721 L 479.925 298.721 L 479.925 298.721 Q 484.31 298.721 489.677 298.04 L 489.677 298.04 L 489.677 298.04 Q 495.045 297.36 500.412 296.528 L 500.412 296.528 L 500.412 296.528 Q 505.78 295.697 510.543 294.412 L 510.543 294.412 L 510.543 294.412 Q 515.306 293.126 518.481 291.917 L 518.481 291.917 L 518.481 291.917 Q 518.481 288.893 518.405 285.793 L 518.405 285.793 L 518.405 285.793 Q 518.33 282.694 518.33 279.67 L 518.33 279.67 L 518.33 279.67 Q 518.33 267.422 518.481 259.938 L 518.481 259.938 L 518.481 259.938 Q 518.632 252.454 518.934 248.976 L 518.934 248.976 L 518.934 248.976 Q 517.422 249.43 515.759 249.581 L 515.759 249.581 L 515.759 249.581 Q 514.096 249.732 512.433 249.732 L 512.433 249.732 L 512.433 249.732 Q 508.955 249.732 505.175 248.976 L 505.175 248.976 L 505.175 248.976 Q 505.478 253.814 505.704 259.106 L 505.704 259.106 L 505.704 259.106 Q 505.931 264.398 505.931 269.69 L 505.931 269.69 L 505.931 269.69 Q 505.931 274.378 505.856 278.914 L 505.856 278.914 L 505.856 278.914 Q 505.78 283.45 505.629 287.986 L 505.629 287.986 L 505.629 287.986 Q 503.663 289.195 500.866 290.102 L 500.866 290.102 L 500.866 290.102 Q 498.069 291.01 494.818 291.614 L 494.818 291.614 L 494.818 291.614 Q 491.567 292.219 488.09 292.522 L 488.09 292.522 L 488.09 292.522 Q 484.612 292.824 481.437 292.824 L 481.437 292.824 L 481.437 292.824 Q 470.853 292.824 462.461 289.498 L 462.461 289.498 L 462.461 289.498 Q 454.07 286.171 448.248 280.048 L 448.248 280.048 L 448.248 280.048 Q 442.427 273.924 439.403 265.003 L 439.403 265.003 L 439.403 265.003 Q 436.379 256.082 436.379 245.045 L 436.379 245.045 L 436.379 245.045 Q 436.379 232.495 439.781 223.348 L 439.781 223.348 L 439.781 223.348 Q 443.183 214.2 449.156 208.228 L 449.156 208.228 L 449.156 208.228 Q 455.128 202.255 463.217 199.382 L 463.217 199.382 L 463.217 199.382 Q 471.306 196.51 480.681 196.51 L 480.681 196.51 L 480.681 196.51 Q 486.426 196.51 491.492 197.795 L 491.492 197.795 L 491.492 197.795 Q 496.557 199.08 500.715 201.121 L 500.715 201.121 L 500.715 201.121 Q 504.873 203.162 508.275 205.884 L 508.275 205.884 L 508.275 205.884 Q 511.677 208.606 513.945 211.327 Z " fill="none" vector-effect="non-scaling-stroke" stroke-width="2" stroke="rgb(0,0,0)" stroke-opacity="0.5" stroke-linejoin="miter" stroke-linecap="square" stroke-miterlimit="3"/><path d=" M 611.469 232.042 L 611.469 232.042 L 611.469 237.334 L 611.469 237.334 Q 603.304 237.485 595.668 237.636 L 595.668 237.636 L 595.668 237.636 Q 588.033 237.787 579.868 237.787 L 579.868 237.787 L 579.868 237.787 Q 571.703 237.787 564.068 237.636 L 564.068 237.636 L 564.068 237.636 Q 556.432 237.485 548.267 237.334 L 548.267 237.334 L 548.267 232.042 L 548.267 232.042 Q 548.267 222.062 548.645 212.461 L 548.645 212.461 L 548.645 212.461 Q 549.023 202.86 549.477 192.881 L 549.477 192.881 L 549.477 192.881 Q 547.511 193.183 545.697 193.41 L 545.697 193.41 L 545.697 193.41 Q 543.882 193.637 542.068 193.637 L 542.068 193.637 L 542.068 193.637 Q 540.254 193.637 538.439 193.41 L 538.439 193.41 L 538.439 193.41 Q 536.625 193.183 534.659 192.881 L 534.659 192.881 L 534.659 192.881 Q 535.113 202.86 535.491 212.461 L 535.491 212.461 L 535.491 212.461 Q 535.869 222.062 535.869 232.042 L 535.869 232.042 L 535.869 258.048 L 535.869 258.048 Q 535.869 268.027 535.491 277.704 L 535.491 277.704 L 535.491 277.704 Q 535.113 287.381 534.659 296.755 L 534.659 296.755 L 534.659 296.755 Q 538.137 296.453 542.068 296.453 L 542.068 296.453 L 542.068 296.453 Q 545.999 296.453 549.477 296.755 L 549.477 296.755 L 549.477 296.755 Q 549.023 287.381 548.645 277.704 L 548.645 277.704 L 548.645 277.704 Q 548.267 268.027 548.267 258.048 L 548.267 258.048 L 548.267 244.44 L 548.267 244.44 Q 556.432 244.289 564.068 244.213 L 564.068 244.213 L 564.068 244.213 Q 571.703 244.138 579.868 244.138 L 579.868 244.138 L 579.868 244.138 Q 588.033 244.138 595.668 244.213 L 595.668 244.213 L 595.668 244.213 Q 603.304 244.289 611.469 244.44 L 611.469 244.44 L 611.469 258.048 L 611.469 258.048 Q 611.469 268.027 611.091 277.704 L 611.091 277.704 L 611.091 277.704 Q 610.713 287.381 610.259 296.755 L 610.259 296.755 L 610.259 296.755 Q 613.737 296.453 617.668 296.453 L 617.668 296.453 L 617.668 296.453 Q 621.599 296.453 625.077 296.755 L 625.077 296.755 L 625.077 296.755 Q 624.623 287.381 624.245 277.704 L 624.245 277.704 L 624.245 277.704 Q 623.867 268.027 623.867 258.048 L 623.867 258.048 L 623.867 232.042 L 623.867 232.042 Q 623.867 222.062 624.245 212.461 L 624.245 212.461 L 624.245 212.461 Q 624.623 202.86 625.077 192.881 L 625.077 192.881 L 625.077 192.881 Q 623.111 193.183 621.297 193.41 L 621.297 193.41 L 621.297 193.41 Q 619.482 193.637 617.668 193.637 L 617.668 193.637 L 617.668 193.637 Q 615.854 193.637 614.039 193.41 L 614.039 193.41 L 614.039 193.41 Q 612.225 193.183 610.259 192.881 L 610.259 192.881 L 610.259 192.881 Q 610.713 202.86 611.091 212.461 L 611.091 212.461 L 611.091 212.461 Q 611.469 222.062 611.469 232.042 Z " fill="none" vector-effect="non-scaling-stroke" stroke-width="2" stroke="rgb(0,0,0)" stroke-opacity="0.5" stroke-linejoin="miter" stroke-linecap="square" stroke-miterlimit="3"/><path d=" M 709.856 202.296 Q 706.984 201.915 703.474 201.65 Q 699.467 201.348 695.158 201.121 Q 690.849 200.894 686.54 200.819 Q 682.23 200.743 678.299 200.743 Q 677.846 216.317 677.846 232.042 L 677.846 258.048 Q 677.846 268.027 678.224 277.704 Q 678.602 287.381 679.055 296.755 Q 675.578 296.453 671.646 296.453 Q 667.715 296.453 664.238 296.755 Q 664.691 287.381 665.069 277.704 Q 665.447 268.027 665.447 258.048 L 665.447 232.042 Q 665.447 216.317 664.994 200.743 Q 661.062 200.743 656.753 200.819 Q 652.444 200.894 648.135 201.121 Q 643.826 201.348 639.819 201.65 Q 635.812 201.953 632.637 202.406 Q 633.393 199.685 633.393 197.568 Q 633.393 195.905 632.637 192.881 Q 642.616 193.183 652.142 193.41 Q 661.667 193.637 671.646 193.637 Q 681.626 193.637 691.151 193.41 Q 698.741 193.229 706.62 193.001 Q 706.596 192.94 706.574 192.881 Q 706.911 192.933 707.244 192.982 Q 708.943 192.933 710.656 192.881 Q 710.586 193.161 710.522 193.431 Q 712.259 193.637 714.134 193.637 Q 716.099 193.637 717.914 193.41 Q 719.728 193.183 721.694 192.881 Q 724.566 204.372 727.288 214.427 Q 730.01 224.482 733.109 234.839 Q 736.209 245.196 739.762 256.612 Q 743.315 268.027 747.851 282.391 L 748.154 282.391 Q 749.514 278.309 751.934 271.127 Q 754.353 263.945 757.226 255.251 Q 760.098 246.557 763.274 237.182 Q 766.449 227.808 769.17 219.265 Q 771.892 210.722 774.009 203.692 Q 776.126 196.661 777.033 192.881 Q 780.057 193.637 782.022 193.637 Q 783.988 193.637 787.012 192.881 Q 788.07 196.963 790.263 204.07 Q 792.455 211.176 795.177 219.87 Q 797.898 228.564 800.998 237.938 Q 804.098 247.313 806.97 255.931 Q 809.843 264.55 812.187 271.505 Q 814.53 278.46 815.891 282.391 L 816.194 282.391 Q 817.252 279.065 819.444 272.034 Q 821.637 265.003 824.434 256.158 Q 827.231 247.313 830.18 237.56 Q 833.128 227.808 835.774 218.963 Q 838.42 210.118 840.461 203.162 Q 842.502 196.207 843.258 192.881 Q 844.619 193.183 845.904 193.41 Q 847.19 193.637 848.55 193.637 Q 849.911 193.637 851.196 193.41 Q 852.482 193.183 853.842 192.881 Q 852.33 196.358 849.458 204.372 Q 846.585 212.386 843.032 222.667 Q 839.478 232.949 835.623 244.44 Q 831.767 255.931 828.214 266.288 Q 824.661 276.646 821.864 284.886 Q 819.066 293.126 817.706 296.755 Q 815.286 296.453 812.565 296.453 Q 809.843 296.453 807.424 296.755 Q 800.62 275.738 793.967 254.495 Q 787.314 233.251 779.603 210.571 L 779.301 210.571 Q 778.091 214.049 776.05 219.87 Q 774.009 225.691 771.514 232.949 Q 769.019 240.206 766.146 248.522 Q 763.274 256.838 760.401 265.306 Q 757.528 273.773 754.806 281.938 Q 752.085 290.102 749.817 296.755 Q 747.398 296.453 744.525 296.453 Q 741.652 296.453 739.233 296.755 Q 738.023 292.975 735.528 284.81 Q 733.034 276.646 729.858 266.364 Q 726.683 256.082 723.206 244.818 Q 719.728 233.554 716.553 223.348 Q 713.378 213.142 710.732 204.977 Q 710.277 203.574 709.856 202.296 Z " fill="none" vector-effect="non-scaling-stroke" stroke-width="2" stroke="rgb(0,0,0)" stroke-opacity="0.5" stroke-linejoin="miter" stroke-linecap="square" stroke-miterlimit="3"/><path d=" M 861.554 231.89 L 861.554 231.89 L 861.554 257.897 L 861.554 257.897 Q 861.554 267.876 861.176 277.477 L 861.176 277.477 L 861.176 277.477 Q 860.798 287.078 860.344 296.755 L 860.344 296.755 L 860.344 296.755 Q 867.299 296.453 874.103 296.453 L 874.103 296.453 L 874.103 296.453 Q 880.907 296.453 887.862 296.453 L 887.862 296.453 L 887.862 296.453 Q 894.818 296.453 901.546 296.453 L 901.546 296.453 L 901.546 296.453 Q 908.274 296.453 915.078 296.755 L 915.078 296.755 L 915.078 296.755 Q 914.625 295.243 914.625 292.824 L 914.625 292.824 L 914.625 292.824 Q 914.625 291.766 914.7 290.48 L 914.7 290.48 L 914.7 290.48 Q 914.776 289.195 915.078 288.137 L 915.078 288.137 L 915.078 288.137 Q 911.45 288.893 906.536 289.271 L 906.536 289.271 L 906.536 289.271 Q 901.622 289.649 896.103 289.876 L 896.103 289.876 L 896.103 289.876 Q 890.584 290.102 884.838 290.102 L 884.838 290.102 L 884.838 290.102 Q 879.244 290.102 874.254 290.102 L 874.254 290.102 L 874.254 290.102 Q 874.103 287.23 874.028 281.635 L 874.028 281.635 L 874.028 281.635 Q 873.952 276.041 873.952 267.422 L 873.952 267.422 L 873.952 258.35 L 873.952 252.454 L 873.952 252.454 Q 873.952 250.034 874.028 248.447 L 874.028 248.447 L 874.028 248.447 Q 874.103 246.859 874.103 245.498 L 874.103 245.498 L 874.103 245.498 Q 876.825 245.498 881.436 245.574 L 881.436 245.574 L 881.436 245.574 Q 886.048 245.65 891.264 245.725 L 891.264 245.725 L 891.264 245.725 Q 896.481 245.801 901.697 246.103 L 901.697 246.103 L 901.697 246.103 Q 906.914 246.406 910.845 246.859 L 910.845 246.859 L 910.845 246.859 Q 910.391 244.591 910.391 242.323 L 910.391 242.323 L 910.391 242.323 Q 910.391 239.904 910.845 237.636 L 910.845 237.636 L 910.845 237.636 Q 907.518 237.938 903.814 238.165 L 903.814 238.165 L 903.814 238.165 Q 900.11 238.392 895.725 238.619 L 895.725 238.619 L 895.725 238.619 Q 891.34 238.846 886.048 238.997 L 886.048 238.997 L 886.048 238.997 Q 880.756 239.148 874.103 239.148 L 874.103 239.148 L 874.103 239.148 Q 874.103 236.275 874.028 230.681 L 874.028 230.681 L 874.028 230.681 Q 873.952 225.086 873.952 219.19 L 873.952 219.19 L 873.952 219.19 Q 873.952 213.595 874.179 209.21 L 874.179 209.21 L 874.179 209.21 Q 874.406 204.826 874.557 199.987 L 874.557 199.987 L 874.557 199.987 Q 881.966 199.987 887.258 200.214 L 887.258 200.214 L 887.258 200.214 Q 892.55 200.441 897.01 200.743 L 897.01 200.743 L 897.01 200.743 Q 901.47 201.046 905.477 201.348 L 905.477 201.348 L 905.477 201.348 Q 909.484 201.65 914.322 201.953 L 914.322 201.953 L 914.322 201.953 Q 913.869 199.685 913.869 197.417 L 913.869 197.417 L 913.869 197.417 Q 913.869 195.149 914.322 192.881 L 914.322 192.881 L 914.322 192.881 Q 907.518 193.183 900.866 193.41 L 900.866 193.41 L 900.866 193.41 Q 894.213 193.637 887.409 193.637 L 887.409 193.637 L 887.409 193.637 Q 880.605 193.637 873.876 193.41 L 873.876 193.41 L 873.876 193.41 Q 867.148 193.183 860.344 192.881 L 860.344 192.881 L 860.344 192.881 Q 860.798 202.558 861.176 212.234 L 861.176 212.234 L 861.176 212.234 Q 861.554 221.911 861.554 231.89 Z " fill="none" vector-effect="non-scaling-stroke" stroke-width="2" stroke="rgb(0,0,0)" stroke-opacity="0.5" stroke-linejoin="miter" stroke-linecap="square" stroke-miterlimit="3"/><path d=" M 928.082 232.042 L 928.082 232.042 L 928.082 258.048 L 928.082 258.048 Q 928.082 268.027 927.704 277.704 L 927.704 277.704 L 927.704 277.704 Q 927.326 287.381 926.872 296.755 L 926.872 296.755 L 926.872 296.755 Q 930.35 296.453 934.281 296.453 L 934.281 296.453 L 934.281 296.453 Q 938.212 296.453 941.69 296.755 L 941.69 296.755 L 941.69 296.755 Q 941.236 287.381 940.858 277.704 L 940.858 277.704 L 940.858 277.704 Q 940.48 268.027 940.48 258.048 L 940.48 258.048 L 940.48 232.042 L 940.48 232.042 Q 940.48 222.062 940.858 212.461 L 940.858 212.461 L 940.858 212.461 Q 941.236 202.86 941.69 192.881 L 941.69 192.881 L 941.69 192.881 Q 939.724 193.183 937.91 193.41 L 937.91 193.41 L 937.91 193.41 Q 936.095 193.637 934.281 193.637 L 934.281 193.637 L 934.281 193.637 Q 932.466 193.637 930.652 193.41 L 930.652 193.41 L 930.652 193.41 Q 928.838 193.183 926.872 192.881 L 926.872 192.881 L 926.872 192.881 Q 927.326 202.86 927.704 212.461 L 927.704 212.461 L 927.704 212.461 Q 928.082 222.062 928.082 232.042 Z " fill="none" vector-effect="non-scaling-stroke" stroke-width="2" stroke="rgb(0,0,0)" stroke-opacity="0.5" stroke-linejoin="miter" stroke-linecap="square" stroke-miterlimit="3"/><path d=" M 1047.681 211.327 L 1047.681 211.327 L 1049.495 211.327 L 1049.495 211.327 Q 1049.798 208.454 1050.78 205.128 L 1050.78 205.128 L 1050.78 205.128 Q 1051.763 201.802 1052.973 199.685 L 1052.973 199.685 L 1052.973 199.685 Q 1050.251 198.324 1046.774 196.812 L 1046.774 196.812 L 1046.774 196.812 Q 1043.296 195.3 1038.684 193.939 L 1038.684 193.939 L 1038.684 193.939 Q 1034.073 192.578 1028.1 191.747 L 1028.1 191.747 L 1028.1 191.747 Q 1022.128 190.915 1014.417 190.915 L 1014.417 190.915 L 1014.417 190.915 Q 1001.111 190.915 990.149 194.544 L 990.149 194.544 L 990.149 194.544 Q 979.187 198.173 971.476 205.128 L 971.476 205.128 L 971.476 205.128 Q 963.765 212.083 959.531 222.138 L 959.531 222.138 L 959.531 222.138 Q 955.298 232.193 955.298 245.045 L 955.298 245.045 L 955.298 245.045 Q 955.298 258.35 959.38 268.481 L 959.38 268.481 L 959.38 268.481 Q 963.462 278.611 971.022 285.415 L 971.022 285.415 L 971.022 285.415 Q 978.582 292.219 989.393 295.47 L 989.393 295.47 L 989.393 295.47 Q 1000.204 298.721 1013.661 298.721 L 1013.661 298.721 L 1013.661 298.721 Q 1018.046 298.721 1023.413 298.04 L 1023.413 298.04 L 1023.413 298.04 Q 1028.781 297.36 1034.148 296.528 L 1034.148 296.528 L 1034.148 296.528 Q 1039.516 295.697 1044.279 294.412 L 1044.279 294.412 L 1044.279 294.412 Q 1049.042 293.126 1052.217 291.917 L 1052.217 291.917 L 1052.217 291.917 Q 1052.217 288.893 1052.141 285.793 L 1052.141 285.793 L 1052.141 285.793 Q 1052.066 282.694 1052.066 279.67 L 1052.066 279.67 L 1052.066 279.67 Q 1052.066 267.422 1052.217 259.938 L 1052.217 259.938 L 1052.217 259.938 Q 1052.368 252.454 1052.67 248.976 L 1052.67 248.976 L 1052.67 248.976 Q 1051.158 249.43 1049.495 249.581 L 1049.495 249.581 L 1049.495 249.581 Q 1047.832 249.732 1046.169 249.732 L 1046.169 249.732 L 1046.169 249.732 Q 1042.691 249.732 1038.911 248.976 L 1038.911 248.976 L 1038.911 248.976 Q 1039.214 253.814 1039.44 259.106 L 1039.44 259.106 L 1039.44 259.106 Q 1039.667 264.398 1039.667 269.69 L 1039.667 269.69 L 1039.667 269.69 Q 1039.667 274.378 1039.592 278.914 L 1039.592 278.914 L 1039.592 278.914 Q 1039.516 283.45 1039.365 287.986 L 1039.365 287.986 L 1039.365 287.986 Q 1037.399 289.195 1034.602 290.102 L 1034.602 290.102 L 1034.602 290.102 Q 1031.805 291.01 1028.554 291.614 L 1028.554 291.614 L 1028.554 291.614 Q 1025.303 292.219 1021.826 292.522 L 1021.826 292.522 L 1021.826 292.522 Q 1018.348 292.824 1015.173 292.824 L 1015.173 292.824 L 1015.173 292.824 Q 1004.589 292.824 996.197 289.498 L 996.197 289.498 L 996.197 289.498 Q 987.806 286.171 981.984 280.048 L 981.984 280.048 L 981.984 280.048 Q 976.163 273.924 973.139 265.003 L 973.139 265.003 L 973.139 265.003 Q 970.115 256.082 970.115 245.045 L 970.115 245.045 L 970.115 245.045 Q 970.115 232.495 973.517 223.348 L 973.517 223.348 L 973.517 223.348 Q 976.919 214.2 982.892 208.228 L 982.892 208.228 L 982.892 208.228 Q 988.864 202.255 996.953 199.382 L 996.953 199.382 L 996.953 199.382 Q 1005.042 196.51 1014.417 196.51 L 1014.417 196.51 L 1014.417 196.51 Q 1020.162 196.51 1025.228 197.795 L 1025.228 197.795 L 1025.228 197.795 Q 1030.293 199.08 1034.451 201.121 L 1034.451 201.121 L 1034.451 201.121 Q 1038.609 203.162 1042.011 205.884 L 1042.011 205.884 L 1042.011 205.884 Q 1045.413 208.606 1047.681 211.327 Z " fill="none" vector-effect="non-scaling-stroke" stroke-width="2" stroke="rgb(0,0,0)" stroke-opacity="0.5" stroke-linejoin="miter" stroke-linecap="square" stroke-miterlimit="3"/><path d=" M 1145.205 232.042 L 1145.205 232.042 L 1145.205 237.334 L 1145.205 237.334 Q 1137.04 237.485 1129.404 237.636 L 1129.404 237.636 L 1129.404 237.636 Q 1121.769 237.787 1113.604 237.787 L 1113.604 237.787 L 1113.604 237.787 Q 1105.439 237.787 1097.804 237.636 L 1097.804 237.636 L 1097.804 237.636 Q 1090.168 237.485 1082.003 237.334 L 1082.003 237.334 L 1082.003 232.042 L 1082.003 232.042 Q 1082.003 222.062 1082.381 212.461 L 1082.381 212.461 L 1082.381 212.461 Q 1082.759 202.86 1083.213 192.881 L 1083.213 192.881 L 1083.213 192.881 Q 1081.247 193.183 1079.433 193.41 L 1079.433 193.41 L 1079.433 193.41 Q 1077.618 193.637 1075.804 193.637 L 1075.804 193.637 L 1075.804 193.637 Q 1073.99 193.637 1072.175 193.41 L 1072.175 193.41 L 1072.175 193.41 Q 1070.361 193.183 1068.395 192.881 L 1068.395 192.881 L 1068.395 192.881 Q 1068.849 202.86 1069.227 212.461 L 1069.227 212.461 L 1069.227 212.461 Q 1069.605 222.062 1069.605 232.042 L 1069.605 232.042 L 1069.605 258.048 L 1069.605 258.048 Q 1069.605 268.027 1069.227 277.704 L 1069.227 277.704 L 1069.227 277.704 Q 1068.849 287.381 1068.395 296.755 L 1068.395 296.755 L 1068.395 296.755 Q 1071.873 296.453 1075.804 296.453 L 1075.804 296.453 L 1075.804 296.453 Q 1079.735 296.453 1083.213 296.755 L 1083.213 296.755 L 1083.213 296.755 Q 1082.759 287.381 1082.381 277.704 L 1082.381 277.704 L 1082.381 277.704 Q 1082.003 268.027 1082.003 258.048 L 1082.003 258.048 L 1082.003 244.44 L 1082.003 244.44 Q 1090.168 244.289 1097.804 244.213 L 1097.804 244.213 L 1097.804 244.213 Q 1105.439 244.138 1113.604 244.138 L 1113.604 244.138 L 1113.604 244.138 Q 1121.769 244.138 1129.404 244.213 L 1129.404 244.213 L 1129.404 244.213 Q 1137.04 244.289 1145.205 244.44 L 1145.205 244.44 L 1145.205 258.048 L 1145.205 258.048 Q 1145.205 268.027 1144.827 277.704 L 1144.827 277.704 L 1144.827 277.704 Q 1144.449 287.381 1143.995 296.755 L 1143.995 296.755 L 1143.995 296.755 Q 1147.473 296.453 1151.404 296.453 L 1151.404 296.453 L 1151.404 296.453 Q 1155.335 296.453 1158.813 296.755 L 1158.813 296.755 L 1158.813 296.755 Q 1158.359 287.381 1157.981 277.704 L 1157.981 277.704 L 1157.981 277.704 Q 1157.603 268.027 1157.603 258.048 L 1157.603 258.048 L 1157.603 232.042 L 1157.603 232.042 Q 1157.603 222.062 1157.981 212.461 L 1157.981 212.461 L 1157.981 212.461 Q 1158.359 202.86 1158.813 192.881 L 1158.813 192.881 L 1158.813 192.881 Q 1156.847 193.183 1155.033 193.41 L 1155.033 193.41 L 1155.033 193.41 Q 1153.218 193.637 1151.404 193.637 L 1151.404 193.637 L 1151.404 193.637 Q 1149.59 193.637 1147.775 193.41 L 1147.775 193.41 L 1147.775 193.41 Q 1145.961 193.183 1143.995 192.881 L 1143.995 192.881 L 1143.995 192.881 Q 1144.449 202.86 1144.827 212.461 L 1144.827 212.461 L 1144.827 212.461 Q 1145.205 222.062 1145.205 232.042 Z " fill="none" vector-effect="non-scaling-stroke" stroke-width="2" stroke="rgb(0,0,0)" stroke-opacity="0.5" stroke-linejoin="miter" stroke-linecap="square" stroke-miterlimit="3"/><path d=" M 1199.183 232.042 L 1199.183 232.042 L 1199.183 258.048 L 1199.183 258.048 Q 1199.183 268.027 1198.805 277.704 L 1198.805 277.704 L 1198.805 277.704 Q 1198.427 287.381 1197.974 296.755 L 1197.974 296.755 L 1197.974 296.755 Q 1201.451 296.453 1205.382 296.453 L 1205.382 296.453 L 1205.382 296.453 Q 1209.314 296.453 1212.791 296.755 L 1212.791 296.755 L 1212.791 296.755 Q 1212.338 287.381 1211.96 277.704 L 1211.96 277.704 L 1211.96 277.704 Q 1211.582 268.027 1211.582 258.048 L 1211.582 258.048 L 1211.582 232.042 L 1211.582 232.042 Q 1211.582 216.317 1212.035 200.743 L 1212.035 200.743 L 1212.035 200.743 Q 1215.966 200.743 1220.276 200.819 L 1220.276 200.819 L 1220.276 200.819 Q 1224.585 200.894 1228.894 201.121 L 1228.894 201.121 L 1228.894 201.121 Q 1233.203 201.348 1237.21 201.65 L 1237.21 201.65 L 1237.21 201.65 Q 1241.217 201.953 1244.392 202.406 L 1244.392 202.406 L 1244.392 202.406 Q 1243.636 199.685 1243.636 197.719 L 1243.636 197.719 L 1243.636 197.719 Q 1243.636 195.905 1244.392 192.881 L 1244.392 192.881 L 1244.392 192.881 Q 1234.413 193.183 1224.887 193.41 L 1224.887 193.41 L 1224.887 193.41 Q 1215.362 193.637 1205.382 193.637 L 1205.382 193.637 L 1205.382 193.637 Q 1195.403 193.637 1185.878 193.41 L 1185.878 193.41 L 1185.878 193.41 Q 1176.352 193.183 1166.373 192.881 L 1166.373 192.881 L 1166.373 192.881 Q 1167.129 195.905 1167.129 197.568 L 1167.129 197.568 L 1167.129 197.568 Q 1167.129 199.685 1166.373 202.406 L 1166.373 202.406 L 1166.373 202.406 Q 1169.548 201.953 1173.555 201.65 L 1173.555 201.65 L 1173.555 201.65 Q 1177.562 201.348 1181.871 201.121 L 1181.871 201.121 L 1181.871 201.121 Q 1186.18 200.894 1190.489 200.819 L 1190.489 200.819 L 1190.489 200.819 Q 1194.798 200.743 1198.73 200.743 L 1198.73 200.743 L 1198.73 200.743 Q 1199.183 216.317 1199.183 232.042 Z " fill="none" vector-effect="non-scaling-stroke" stroke-width="2" stroke="rgb(0,0,0)" stroke-opacity="0.5" stroke-linejoin="miter" stroke-linecap="square" stroke-miterlimit="3"/></g><g id="Group"><path d=" M 327.212 76.525 L 327.212 76.525 L 327.212 103.224 L 327.212 103.224 Q 327.212 113.469 326.824 123.403 L 326.824 123.403 L 326.824 123.403 Q 326.436 133.337 325.97 142.961 L 325.97 142.961 L 325.97 142.961 Q 333.421 142.651 340.328 142.651 L 340.328 142.651 L 340.328 142.651 Q 347.236 142.651 354.687 142.651 L 354.687 142.651 L 354.687 142.651 Q 361.827 142.651 368.967 142.651 L 368.967 142.651 L 368.967 142.651 Q 376.107 142.651 383.248 142.961 L 383.248 142.961 L 383.248 142.961 Q 382.472 140.478 382.472 138.77 L 382.472 138.77 L 382.472 138.77 Q 382.472 136.907 383.248 134.113 L 383.248 134.113 L 383.248 134.113 Q 371.606 135.666 361.516 135.899 L 361.516 135.899 L 361.516 135.899 Q 351.427 136.131 340.406 136.131 L 340.406 136.131 L 340.406 136.131 Q 340.251 124.8 340.096 110.442 L 340.096 110.442 L 340.096 110.442 Q 339.94 96.084 339.94 76.525 L 339.94 76.525 L 339.94 76.525 Q 339.94 66.281 340.328 56.424 L 340.328 56.424 L 340.328 56.424 Q 340.716 46.567 341.182 36.322 L 341.182 36.322 L 341.182 36.322 Q 339.164 36.633 337.301 36.866 L 337.301 36.866 L 337.301 36.866 Q 335.439 37.099 333.576 37.099 L 333.576 37.099 L 333.576 37.099 Q 331.713 37.099 329.851 36.866 L 329.851 36.866 L 329.851 36.866 Q 327.988 36.633 325.97 36.322 L 325.97 36.322 L 325.97 36.322 Q 326.436 46.567 326.824 56.424 L 326.824 56.424 L 326.824 56.424 Q 327.212 66.281 327.212 76.525 Z " fill="none" vector-effect="non-scaling-stroke" stroke-width="2" stroke="rgb(0,0,0)" stroke-opacity="0.5" stroke-linejoin="miter" stroke-linecap="square" stroke-miterlimit="3"/><path d=" M 395.51 76.525 L 395.51 76.525 L 395.51 103.224 L 395.51 103.224 Q 395.51 113.469 395.122 123.403 L 395.122 123.403 L 395.122 123.403 Q 394.734 133.337 394.269 142.961 L 394.269 142.961 L 394.269 142.961 Q 397.839 142.651 401.875 142.651 L 401.875 142.651 L 401.875 142.651 Q 405.91 142.651 409.481 142.961 L 409.481 142.961 L 409.481 142.961 Q 409.015 133.337 408.627 123.403 L 408.627 123.403 L 408.627 123.403 Q 408.239 113.469 408.239 103.224 L 408.239 103.224 L 408.239 76.525 L 408.239 76.525 Q 408.239 66.281 408.627 56.424 L 408.627 56.424 L 408.627 56.424 Q 409.015 46.567 409.481 36.322 L 409.481 36.322 L 409.481 36.322 Q 407.463 36.633 405.6 36.866 L 405.6 36.866 L 405.6 36.866 Q 403.737 37.099 401.875 37.099 L 401.875 37.099 L 401.875 37.099 Q 400.012 37.099 398.149 36.866 L 398.149 36.866 L 398.149 36.866 Q 396.287 36.633 394.269 36.322 L 394.269 36.322 L 394.269 36.322 Q 394.734 46.567 395.122 56.424 L 395.122 56.424 L 395.122 56.424 Q 395.51 66.281 395.51 76.525 Z " fill="none" vector-effect="non-scaling-stroke" stroke-width="2" stroke="rgb(0,0,0)" stroke-opacity="0.5" stroke-linejoin="miter" stroke-linecap="square" stroke-miterlimit="3"/><path d=" M 429.349 76.525 L 429.349 76.525 L 429.349 103.224 L 429.349 103.224 Q 429.349 113.469 428.961 123.403 L 428.961 123.403 L 428.961 123.403 Q 428.573 133.337 428.107 142.961 L 428.107 142.961 L 428.107 142.961 Q 431.678 142.651 435.713 142.651 L 435.713 142.651 L 435.713 142.651 Q 439.749 142.651 443.319 142.961 L 443.319 142.961 L 443.319 142.961 Q 442.854 133.337 442.466 123.403 L 442.466 123.403 L 442.466 123.403 Q 442.078 113.469 442.078 103.224 L 442.078 103.224 L 442.078 90.03 L 442.078 90.03 Q 447.045 90.03 452.478 90.03 L 452.478 90.03 L 452.478 90.03 Q 457.91 90.03 463.188 90.185 L 463.188 90.185 L 463.188 90.185 Q 468.466 90.34 473.355 90.573 L 473.355 90.573 L 473.355 90.573 Q 478.245 90.806 482.125 91.272 L 482.125 91.272 L 482.125 91.272 Q 481.504 88.943 481.504 86.615 L 481.504 86.615 L 481.504 86.615 Q 481.504 84.287 482.125 81.958 L 482.125 81.958 L 482.125 81.958 Q 472.346 82.89 462.334 83.2 L 462.334 83.2 L 462.334 83.2 Q 452.322 83.51 442.078 83.51 L 442.078 83.51 L 442.078 83.51 Q 442.078 78.543 442 73.964 L 442 73.964 L 442 73.964 Q 441.922 69.385 441.922 63.952 L 441.922 63.952 L 441.922 63.952 Q 441.922 58.985 442 54.018 L 442 54.018 L 442 54.018 Q 442.078 49.051 442.233 43.618 L 442.233 43.618 L 442.233 43.618 Q 445.958 43.618 451.624 43.773 L 451.624 43.773 L 451.624 43.773 Q 457.29 43.928 463.421 44.161 L 463.421 44.161 L 463.421 44.161 Q 469.552 44.394 475.451 44.782 L 475.451 44.782 L 475.451 44.782 Q 481.349 45.17 485.54 45.636 L 485.54 45.636 L 485.54 45.636 Q 485.075 43.307 485.075 40.979 L 485.075 40.979 L 485.075 40.979 Q 485.075 38.651 485.54 36.322 L 485.54 36.322 L 485.54 36.322 Q 477.158 36.633 470.018 36.866 L 470.018 36.866 L 470.018 36.866 Q 462.878 37.099 455.893 37.099 L 455.893 37.099 L 455.893 37.099 Q 448.907 37.099 442 36.866 L 442 36.866 L 442 36.866 Q 435.093 36.633 428.107 36.322 L 428.107 36.322 L 428.107 36.322 Q 428.573 46.567 428.961 56.424 L 428.961 56.424 L 428.961 56.424 Q 429.349 66.281 429.349 76.525 Z " fill="none" vector-effect="non-scaling-stroke" stroke-width="2" stroke="rgb(0,0,0)" stroke-opacity="0.5" stroke-linejoin="miter" stroke-linecap="square" stroke-miterlimit="3"/><path d=" M 497.648 76.37 L 497.648 76.37 L 497.648 103.069 L 497.648 103.069 Q 497.648 113.313 497.26 123.17 L 497.26 123.17 L 497.26 123.17 Q 496.872 133.027 496.406 142.961 L 496.406 142.961 L 496.406 142.961 Q 503.546 142.651 510.531 142.651 L 510.531 142.651 L 510.531 142.651 Q 517.516 142.651 524.657 142.651 L 524.657 142.651 L 524.657 142.651 Q 531.797 142.651 538.704 142.651 L 538.704 142.651 L 538.704 142.651 Q 545.612 142.651 552.597 142.961 L 552.597 142.961 L 552.597 142.961 Q 552.131 141.409 552.131 138.925 L 552.131 138.925 L 552.131 138.925 Q 552.131 137.839 552.209 136.519 L 552.209 136.519 L 552.209 136.519 Q 552.287 135.2 552.597 134.113 L 552.597 134.113 L 552.597 134.113 Q 548.872 134.89 543.827 135.278 L 543.827 135.278 L 543.827 135.278 Q 538.782 135.666 533.116 135.899 L 533.116 135.899 L 533.116 135.899 Q 527.451 136.131 521.552 136.131 L 521.552 136.131 L 521.552 136.131 Q 515.809 136.131 510.687 136.131 L 510.687 136.131 L 510.687 136.131 Q 510.531 133.182 510.454 127.439 L 510.454 127.439 L 510.454 127.439 Q 510.376 121.696 510.376 112.848 L 510.376 112.848 L 510.376 103.534 L 510.376 97.481 L 510.376 97.481 Q 510.376 94.997 510.454 93.367 L 510.454 93.367 L 510.454 93.367 Q 510.531 91.737 510.531 90.34 L 510.531 90.34 L 510.531 90.34 Q 513.325 90.34 518.06 90.418 L 518.06 90.418 L 518.06 90.418 Q 522.794 90.496 528.149 90.573 L 528.149 90.573 L 528.149 90.573 Q 533.504 90.651 538.86 90.961 L 538.86 90.961 L 538.86 90.961 Q 544.215 91.272 548.251 91.737 L 548.251 91.737 L 548.251 91.737 Q 547.785 89.409 547.785 87.081 L 547.785 87.081 L 547.785 87.081 Q 547.785 84.597 548.251 82.269 L 548.251 82.269 L 548.251 82.269 Q 544.836 82.579 541.033 82.812 L 541.033 82.812 L 541.033 82.812 Q 537.23 83.045 532.728 83.278 L 532.728 83.278 L 532.728 83.278 Q 528.227 83.51 522.794 83.666 L 522.794 83.666 L 522.794 83.666 Q 517.361 83.821 510.531 83.821 L 510.531 83.821 L 510.531 83.821 Q 510.531 80.872 510.454 75.128 L 510.454 75.128 L 510.454 75.128 Q 510.376 69.385 510.376 63.331 L 510.376 63.331 L 510.376 63.331 Q 510.376 57.588 510.609 53.087 L 510.609 53.087 L 510.609 53.087 Q 510.842 48.585 510.997 43.618 L 510.997 43.618 L 510.997 43.618 Q 518.603 43.618 524.036 43.851 L 524.036 43.851 L 524.036 43.851 Q 529.469 44.084 534.048 44.394 L 534.048 44.394 L 534.048 44.394 Q 538.627 44.704 542.74 45.015 L 542.74 45.015 L 542.74 45.015 Q 546.854 45.325 551.821 45.636 L 551.821 45.636 L 551.821 45.636 Q 551.355 43.307 551.355 40.979 L 551.355 40.979 L 551.355 40.979 Q 551.355 38.651 551.821 36.322 L 551.821 36.322 L 551.821 36.322 Q 544.836 36.633 538.006 36.866 L 538.006 36.866 L 538.006 36.866 Q 531.176 37.099 524.191 37.099 L 524.191 37.099 L 524.191 37.099 Q 517.206 37.099 510.298 36.866 L 510.298 36.866 L 510.298 36.866 Q 503.391 36.633 496.406 36.322 L 496.406 36.322 L 496.406 36.322 Q 496.872 46.257 497.26 56.191 L 497.26 56.191 L 497.26 56.191 Q 497.648 66.125 497.648 76.37 Z " fill="none" vector-effect="non-scaling-stroke" stroke-width="2" stroke="rgb(0,0,0)" stroke-opacity="0.5" stroke-linejoin="miter" stroke-linecap="square" stroke-miterlimit="3"/><path d=" M 578.675 85.373 L 578.675 85.373 L 578.675 76.525 L 578.675 76.525 Q 578.675 68.143 578.985 59.761 L 578.985 59.761 L 578.985 59.761 Q 579.296 51.379 579.606 42.842 L 579.606 42.842 L 579.606 42.842 Q 582.09 42.531 585.66 42.299 L 585.66 42.299 L 585.66 42.299 Q 589.23 42.066 594.663 42.066 L 594.663 42.066 L 594.663 42.066 Q 598.698 42.066 602.89 42.919 L 602.89 42.919 L 602.89 42.919 Q 607.081 43.773 610.651 46.101 L 610.651 46.101 L 610.651 46.101 Q 614.221 48.43 616.472 52.388 L 616.472 52.388 L 616.472 52.388 Q 618.722 56.346 618.722 62.4 L 618.722 62.4 L 618.722 62.4 Q 618.722 69.385 615.851 73.964 L 615.851 73.964 L 615.851 73.964 Q 612.979 78.543 608.633 81.26 L 608.633 81.26 L 608.633 81.26 Q 604.287 83.976 599.087 85.063 L 599.087 85.063 L 599.087 85.063 Q 593.887 86.149 589.075 86.149 L 589.075 86.149 L 589.075 86.149 Q 585.97 86.149 583.409 85.994 L 583.409 85.994 L 583.409 85.994 Q 580.848 85.839 578.675 85.373 Z " fill="none" vector-effect="non-scaling-stroke" stroke-width="2" stroke="rgb(0,0,0)" stroke-opacity="0.5" stroke-linejoin="miter" stroke-linecap="square" stroke-miterlimit="3"/><path d=" M 685.313 55.26 L 668.394 94.687 L 668.394 94.687 Q 672.43 94.687 676.776 94.842 L 676.776 94.842 L 676.776 94.842 Q 681.122 94.997 685.158 94.997 L 685.158 94.997 L 685.158 94.997 Q 689.504 94.997 693.851 94.919 L 693.851 94.919 L 693.851 94.919 Q 698.197 94.842 702.543 94.687 L 702.543 94.687 L 685.313 55.26 Z " fill="none" vector-effect="non-scaling-stroke" stroke-width="2" stroke="rgb(0,0,0)" stroke-opacity="0.5" stroke-linejoin="miter" stroke-linecap="square" stroke-miterlimit="3"/><path d=" M 639.043 142.656 Q 638.739 142.651 638.436 142.651 Q 636.107 142.651 633.779 142.651 Q 631.606 142.651 629.278 142.651 Q 626.949 142.651 624.776 142.961 Q 622.448 139.701 617.713 133.182 Q 612.979 126.663 607.236 119.212 Q 601.493 111.761 595.516 104.388 Q 589.54 97.015 584.573 91.893 L 578.675 91.893 L 578.675 103.224 Q 578.675 113.469 579.063 123.403 Q 579.451 133.337 579.916 142.961 Q 576.346 142.651 572.31 142.651 Q 568.275 142.651 564.704 142.961 Q 565.17 133.337 565.558 123.403 Q 565.946 113.469 565.946 103.224 L 565.946 76.525 Q 565.946 66.281 565.558 56.424 Q 565.17 46.567 564.704 36.322 Q 569.206 36.633 573.552 36.866 Q 577.898 37.099 582.4 37.099 Q 586.901 37.099 591.248 36.71 Q 595.594 36.322 600.096 36.322 Q 606.615 36.322 612.513 37.564 Q 618.412 38.806 622.836 41.678 Q 627.26 44.549 629.821 49.206 Q 632.382 53.863 632.382 60.848 Q 632.382 68.299 629.045 73.654 Q 625.707 79.009 620.896 82.501 Q 616.084 85.994 610.573 87.934 Q 605.063 89.875 600.561 90.496 Q 602.424 92.824 605.684 97.015 Q 608.943 101.206 612.979 106.251 Q 617.015 111.296 621.361 116.806 Q 625.707 122.316 629.743 127.361 Q 633.779 132.406 637.349 136.597 Q 638.96 138.487 640.286 139.967 Q 652.133 114.317 663.427 88.943 Q 675.379 62.09 687.487 34.304 L 690.436 34.304 Q 694.161 43.307 698.507 53.785 Q 702.854 64.263 707.355 74.973 Q 711.857 85.684 716.358 96.239 Q 720.86 106.794 724.818 115.875 Q 728.776 124.955 731.958 132.096 Q 735.14 139.236 737.158 142.961 Q 734.985 142.651 733.045 142.651 Q 731.104 142.651 728.931 142.651 Q 726.758 142.651 724.818 142.651 Q 722.878 142.651 720.704 142.961 Q 719.618 139.391 717.755 134.346 Q 715.893 129.301 713.642 123.791 Q 711.391 118.281 709.063 112.615 Q 706.734 106.949 704.716 101.827 Q 699.749 101.672 694.627 101.594 Q 689.504 101.516 684.382 101.516 Q 679.57 101.516 674.913 101.594 Q 670.257 101.672 665.445 101.827 Q 660.478 113.934 656.442 124.878 Q 652.406 135.821 650.388 142.961 Q 647.749 142.651 644.645 142.651 Q 643.708 142.651 642.813 142.679 Q 642.955 142.824 643.093 142.961 Q 642.129 142.833 641.165 142.757 Q 639.994 142.833 638.901 142.961 Q 638.972 142.809 639.043 142.656 Z " fill="none" vector-effect="non-scaling-stroke" stroke-width="2" stroke="rgb(0,0,0)" stroke-opacity="0.5" stroke-linejoin="miter" stroke-linecap="square" stroke-miterlimit="3"/><path d=" M 771.618 99.343 L 771.618 99.343 L 771.618 99.343 Q 771.618 111.916 771.463 123.403 L 771.463 123.403 L 771.463 123.403 Q 771.307 134.89 770.376 142.961 L 770.376 142.961 L 770.376 142.961 Q 773.946 142.651 777.982 142.651 L 777.982 142.651 L 777.982 142.651 Q 782.018 142.651 785.588 142.961 L 785.588 142.961 L 785.588 142.961 Q 785.278 139.701 785.045 134.346 L 785.045 134.346 L 785.045 134.346 Q 784.812 128.991 784.657 122.704 L 784.657 122.704 L 784.657 122.704 Q 784.501 116.418 784.424 109.899 L 784.424 109.899 L 784.424 109.899 Q 784.346 103.379 784.346 97.636 L 784.346 97.636 L 784.346 97.636 Q 786.83 92.824 790.245 86.848 L 790.245 86.848 L 790.245 86.848 Q 793.66 80.872 798.161 73.421 L 798.161 73.421 L 798.161 73.421 Q 802.663 65.97 808.561 56.812 L 808.561 56.812 L 808.561 56.812 Q 814.46 47.654 821.91 36.322 L 821.91 36.322 L 821.91 36.322 Q 818.03 37.099 815.857 37.099 L 815.857 37.099 L 815.857 37.099 Q 813.684 37.099 809.803 36.322 L 809.803 36.322 L 809.803 36.322 Q 806.698 42.997 803.128 50.06 L 803.128 50.06 L 803.128 50.06 Q 799.558 57.122 795.678 64.107 L 795.678 64.107 L 795.678 64.107 Q 791.797 71.093 787.916 77.767 L 787.916 77.767 L 787.916 77.767 Q 784.036 84.442 780.466 90.03 L 780.466 90.03 L 780.466 90.03 Q 772.394 75.904 765.176 62.866 L 765.176 62.866 L 765.176 62.866 Q 757.958 49.827 750.973 36.322 L 750.973 36.322 L 750.973 36.322 Q 748.8 36.633 746.704 36.866 L 746.704 36.866 L 746.704 36.866 Q 744.609 37.099 742.436 37.099 L 742.436 37.099 L 742.436 37.099 Q 740.263 37.099 738.167 36.866 L 738.167 36.866 L 738.167 36.866 Q 736.072 36.633 733.898 36.322 L 733.898 36.322 L 733.898 36.322 Q 735.451 38.806 738.4 43.696 L 738.4 43.696 L 738.4 43.696 Q 741.349 48.585 744.997 54.716 L 744.997 54.716 L 744.997 54.716 Q 748.645 60.848 752.681 67.6 L 752.681 67.6 L 752.681 67.6 Q 756.716 74.352 760.364 80.484 L 760.364 80.484 L 760.364 80.484 Q 764.012 86.615 767.039 91.66 L 767.039 91.66 L 767.039 91.66 Q 770.066 96.704 771.618 99.343 Z " fill="none" vector-effect="non-scaling-stroke" stroke-width="2" stroke="rgb(0,0,0)" stroke-opacity="0.5" stroke-linejoin="miter" stroke-linecap="square" stroke-miterlimit="3"/></g></g></svg>