<?xml version="1.0" standalone="no"?><!-- Generator: Gravit.io --><svg xmlns="http://www.w3.org/2000/svg" xmlns:xlink="http://www.w3.org/1999/xlink" style="isolation:isolate" viewBox="0 0 500 500" width="500" height="500"><defs><clipPath id="_clipPath_VmvSO4qUbenuh217xx7GtBZ4HCwBZZrV"><rect width="500" height="500"/></clipPath></defs><g clip-path="url(#_clipPath_VmvSO4qUbenuh217xx7GtBZ4HCwBZZrV)"><g id="Group"><defs><filter id="VItnYSqvOokl8UJmgrdbmSQrd5OkcqSm" x="-200%" y="-200%" width="400%" height="400%"><feOffset xmlns="http://www.w3.org/2000/svg" in="SourceAlpha" result="offOut" dx="0" dy="0"/><feGaussianBlur xmlns="http://www.w3.org/2000/svg" in="offOut" result="blurOut" stdDeviation="7.5"/><feComponentTransfer xmlns="http://www.w3.org/2000/svg" in="blurOut" result="opacOut"><feFuncA xmlns="http://www.w3.org/2000/svg" type="table" tableValues="0 0.5"/></feComponentTransfer><feBlend xmlns="http://www.w3.org/2000/svg" in="SourceGraphic" in2="opacOut" mode="normal"/></filter></defs><g filter="url(#VItnYSqvOokl8UJmgrdbmSQrd5OkcqSm)"><path d="M 120.73 111 L 379.27 111 C 384.64 111 389 115.36 389 120.73 L 389 379.27 C 389 384.64 384.64 389 379.27 389 L 120.73 389 C 115.36 389 111 384.64 111 379.27 L 111 120.73 C 111 115.36 115.36 111 120.73 111 Z" style="stroke:none;fill:#FFFFFF;stroke-miterlimit:10;"/></g><rect x="139" y="140" width="48" height="48" transform="matrix(1,0,0,1,0,0)" fill="none" vector-effect="non-scaling-stroke" stroke-width="1" stroke="rgb(0,38,60)" stroke-linejoin="miter" stroke-linecap="square" stroke-miterlimit="3"/><rect x="139" y="198" width="48" height="48" transform="matrix(1,0,0,1,0,0)" fill="none" vector-effect="non-scaling-stroke" stroke-width="1" stroke="rgb(10,62,104)" stroke-linejoin="miter" stroke-linecap="square" stroke-miterlimit="3"/><rect x="139" y="256" width="48" height="48" transform="matrix(1,0,0,1,0,0)" fill="none" vector-effect="non-scaling-stroke" stroke-width="1" stroke="rgb(104,179,222)" stroke-linejoin="miter" stroke-linecap="square" stroke-miterlimit="3"/><rect x="197" y="140" width="48" height="48" transform="matrix(1,0,0,1,0,0)" fill="none" vector-effect="non-scaling-stroke" stroke-width="1" stroke="rgb(10,62,104)" stroke-linejoin="miter" stroke-linecap="square" stroke-miterlimit="3"/><rect x="197" y="198" width="48" height="48" transform="matrix(1,0,0,1,0,0)" fill="none" vector-effect="non-scaling-stroke" stroke-width="1" stroke="rgb(104,179,222)" stroke-linejoin="miter" stroke-linecap="square" stroke-miterlimit="3"/><rect x="197" y="314" width="48" height="48" transform="matrix(1,0,0,1,0,0)" fill="none" vector-effect="non-scaling-stroke" stroke-width="1" stroke="rgb(104,180,222)" stroke-linejoin="miter" stroke-linecap="square" stroke-miterlimit="3"/><rect x="255" y="140" width="48" height="48" transform="matrix(1,0,0,1,0,0)" fill="none" vector-effect="non-scaling-stroke" stroke-width="1" stroke="rgb(104,179,222)" stroke-linejoin="miter" stroke-linecap="square" stroke-miterlimit="3"/><rect x="313" y="198" width="48" height="48" transform="matrix(1,0,0,1,0,0)" fill="none" vector-effect="non-scaling-stroke" stroke-width="1" stroke="rgb(104,180,222)" stroke-linejoin="miter" stroke-linecap="square" stroke-miterlimit="3"/><rect x="255" y="256" width="48" height="48" transform="matrix(1,0,0,1,0,0)" fill="none" vector-effect="non-scaling-stroke" stroke-width="1" stroke="rgb(104,180,222)" stroke-linejoin="miter" stroke-linecap="square" stroke-miterlimit="3"/><rect x="313" y="256" width="48" height="48" transform="matrix(1,0,0,1,0,0)" fill="none" vector-effect="non-scaling-stroke" stroke-width="1" stroke="rgb(10,62,104)" stroke-linejoin="miter" stroke-linecap="square" stroke-miterlimit="3"/><rect x="255" y="314" width="48" height="48" transform="matrix(1,0,0,1,0,0)" fill="none" vector-effect="non-scaling-stroke" stroke-width="1" stroke="rgb(10,62,104)" stroke-linejoin="miter" stroke-linecap="square" stroke-miterlimit="3"/><rect x="313" y="314" width="48" height="48" transform="matrix(1,0,0,1,0,0)" fill="none" vector-effect="non-scaling-stroke" stroke-width="1" stroke="rgb(0,38,60)" stroke-linejoin="miter" stroke-linecap="square" stroke-miterlimit="3"/></g></g></svg>