<?xml version="1.0" encoding="UTF-8" standalone="no"?>
<svg
   xmlns:dc="http://purl.org/dc/elements/1.1/"
   xmlns:cc="http://creativecommons.org/ns#"
   xmlns:rdf="http://www.w3.org/1999/02/22-rdf-syntax-ns#"
   xmlns:svg="http://www.w3.org/2000/svg"
   xmlns="http://www.w3.org/2000/svg"
   version="1.1"
   id="svg4218"
   viewBox="0 0 99.999997 28.332306"
   height="7.9960065mm"
   width="28.222221mm">
  <defs
     id="defs4220" />
  <metadata
     id="metadata4223">
    <rdf:RDF>
      <cc:Work
         rdf:about="">
        <dc:format>image/svg+xml</dc:format>
        <dc:type
           rdf:resource="http://purl.org/dc/dcmitype/StillImage" />
        <dc:title></dc:title>
      </cc:Work>
    </rdf:RDF>
  </metadata>
  <g
     transform="translate(0,-1024.0299)"
     id="layer1">
    <g
       transform="matrix(0.29824899,0,0,0.29824899,-2.0248506e-4,1024.0297)"
       id="g3">
      <g
         id="g5">
        <g
           id="g7">
          <path
             style="fill:#ffffff"
             id="path9"
             d="m 134.552,18.44 c -1.949,0 -4.233,-2.244 -8.04,-2.244 -3.388,0 -5.579,1.918 -5.579,4.48 0,2.164 1.262,4.016 6.597,4.732 7.445,1.045 10.237,2.969 10.237,6.812 0,4.973 -4.318,8.018 -11.595,8.018 -5.5,0 -9.902,-2.316 -9.902,-3.521 0,-0.887 1.019,-0.77 1.862,-0.77 1.78,0 3.692,2.078 8.35,2.078 3.894,0 5.305,-2.238 5.305,-4.641 0,-3.047 -0.705,-4.527 -5.445,-5.088 -6.854,-0.801 -10.07,-2.645 -10.07,-6.814 0,-4.645 3.895,-7.689 10.326,-7.689 4.229,0 9.396,2.08 9.396,3.525 -0.002,0.64 -0.852,1.122 -1.442,1.122" />
          <path
             style="fill:#ffffff"
             id="path11"
             d="m 148.427,38.481 c 3.215,0 5.924,-2.25 5.924,-5.131 0,-1.848 -1.521,-3.369 -3.805,-3.369 -2.795,0 -6.184,2.24 -6.184,4.805 0,2.088 1.867,3.695 4.065,3.695 m -7.449,-3.128 c 0,-3.289 3.135,-5.129 7.027,-5.613 3.978,-0.477 6.176,-2.002 6.176,-3.686 0,-2.404 -1.863,-4.172 -4.063,-4.172 l -0.676,0 c -2.455,0 -3.553,2.406 -5.417,2.406 -0.511,0 -1.015,0.08 -1.015,-0.559 0,-1.6 3.385,-2.648 6.432,-2.648 8.969,0 8.295,3.129 8.295,10.906 l 0,5.848 c 0,1.047 -0.514,1.604 -1.527,1.604 -0.848,0 -2.367,-0.557 -3.725,-0.557 -2.536,0 -3.212,1.117 -5.921,1.117 -3.047,0 -5.586,-1.766 -5.586,-4.646" />
          <path
             style="fill:#ffffff"
             id="path13"
             d="m 170.179,32.146 c 1.184,0 2.19,-0.883 2.7,-2.564 l 1.776,-6.334 c 0.427,-1.363 1.354,-2.078 2.63,-2.078 0.25,0 1.438,0.074 1.521,1.117 0.084,0.562 -0.595,2.084 -0.595,2.166 l -4.823,13.307 c -0.511,1.438 -1.438,2.164 -2.875,2.164 -1.863,0 -3.048,-0.482 -3.812,-2.645 L 161.963,24.05 c -0.763,-2.078 -0.341,-2.807 1.017,-2.807 1.94,0 2.535,0.324 3.38,4.01 1.109,4.728 1.783,6.893 3.819,6.893" />
          <path
             style="fill:#ffffff"
             id="path15"
             d="m 191.881,38.319 c 3.388,0 6.772,-2.646 6.772,-7.615 0,-5.609 -3.301,-7.855 -6.854,-7.855 -3.394,0 -6.854,2.645 -6.854,7.211 0.001,5.128 2.704,8.259 6.936,8.259 m -0.08,1.764 c -6.266,0 -10.159,-3.77 -10.159,-9.541 0,-5.447 3.979,-9.461 9.312,-9.461 7.105,0 11.082,3.287 11.082,9.541 0,5.772 -3.976,9.461 -10.235,9.461" />
          <path
             style="fill:#ffffff"
             id="path17"
             d="m 208.847,16.196 c -1.271,0 -1.688,-0.398 -1.688,-1.043 0,-0.645 0.42,-1.047 1.354,-1.047 0.848,0 1.688,0.248 1.688,1.047 0.003,0.645 -0.843,1.043 -1.354,1.043 m 1.78,20.758 c 0,1.844 -0.592,2.807 -1.776,2.807 -1.854,0 -2.117,-0.479 -2.117,-4.168 l 0,-11.381 c 0,-1.926 0.431,-2.887 1.863,-2.887 2.03,0 2.03,0.881 2.03,4.328 l 0,11.301 0,0 z" />
          <path
             style="fill:#ffffff"
             id="path19"
             d="m 225.729,21.567 c 0.68,0 1.438,0.078 1.438,1.279 0,0.963 -1.438,1.201 -2.793,1.924 -2.201,1.125 -2.031,1.205 -2.791,1.926 -0.766,1.041 -1.188,2.162 -1.188,3.525 l 0,6.893 c 0,1.842 -0.592,2.725 -1.689,2.725 -2.203,0 -2.541,-0.482 -2.541,-3.85 l 0,-12.101 c 0,-1.844 0.684,-2.809 2.115,-2.809 1.188,0 3.641,0.646 4.062,0.646 1.362,0.003 2.209,-0.158 3.387,-0.158" />
          <path
             style="fill:#ffffff"
             id="path21"
             d="m 239.922,30.478 c 0,1.553 -0.848,2.336 -2.284,2.336 l -2.793,0 c -1.438,0 -2.197,-1.102 -2.197,-2.336 0,-1.373 0.685,-2.221 1.944,-2.221 l 3.216,0 c 1.357,0 2.114,0.974 2.114,2.221" />
          <path
             style="fill:#ffffff"
             id="path23"
             d="m 255.097,16.755 c -0.332,0.242 -0.935,1.52 -0.935,2.006 0,0.398 0.172,0.879 0.428,1.275 0.254,0.404 1.604,1.205 1.604,1.934 0,0.715 -0.51,0.635 -1.604,1.596 -0.682,0.568 -1.61,1.846 -1.61,3.451 l 0,8.254 c 0,3.686 -0.336,4.33 -2.026,4.33 -1.695,0 -2.029,-0.645 -2.029,-4.33 l -0.086,-8.096 c 0,-1.766 -0.506,-2.482 -1.188,-3.365 -0.508,-0.639 -1.522,-1.125 -1.522,-1.768 0,-0.801 0.599,-0.801 1.522,-1.92 0.427,-0.561 0.595,-0.926 1.863,-4.09 0.422,-1.041 1.438,-2.523 4.735,-2.523 1.858,0 2.451,0.521 2.451,1.396 0.002,0.729 0.09,0.569 -1.603,1.85" />
          <path
             style="fill:#ffffff"
             id="path25"
             d="m 266.858,38.481 c 3.221,0 5.928,-2.25 5.928,-5.131 0,-1.848 -1.523,-3.369 -3.811,-3.369 -2.793,0 -6.182,2.24 -6.182,4.805 0.004,2.088 1.868,3.695 4.065,3.695 m -7.447,-3.128 c 0,-3.289 3.133,-5.129 7.027,-5.613 3.977,-0.477 6.176,-2.002 6.176,-3.686 0,-2.404 -1.859,-4.172 -4.061,-4.172 l -0.684,0 c -2.451,0 -3.557,2.406 -5.414,2.406 -0.508,0 -1.02,0.08 -1.02,-0.559 0,-1.6 3.387,-2.648 6.434,-2.648 8.979,0 8.299,3.129 8.299,10.906 l 0,5.848 c 0,1.047 -0.506,1.604 -1.521,1.604 -0.846,0 -2.373,-0.557 -3.728,-0.557 -2.541,0 -3.219,1.117 -5.93,1.117 -3.037,0 -5.578,-1.766 -5.578,-4.646" />
          <path
             style="fill:#ffffff"
             id="path27"
             d="m 284.038,16.196 c -1.27,0 -1.688,-0.398 -1.688,-1.043 0,-0.645 0.42,-1.047 1.354,-1.047 0.848,0 1.691,0.248 1.691,1.047 -10e-4,0.645 -0.846,1.043 -1.357,1.043 m 1.777,20.758 c 0,1.844 -0.59,2.807 -1.777,2.807 -1.854,0 -2.115,-0.479 -2.115,-4.168 l 0,-11.381 c 0,-1.926 0.43,-2.887 1.861,-2.887 2.031,0 2.031,0.881 2.031,4.328 l 0,11.301 z" />
          <path
             style="fill:#ffffff"
             id="path29"
             d="m 300.075,21.567 c 0.678,0 1.438,0.078 1.438,1.279 0,0.963 -0.593,1.201 -1.941,1.924 -2.2,1.125 -2.032,1.205 -2.795,1.926 -0.76,1.041 -1.185,2.162 -1.185,3.525 l 0,6.893 c 0,1.842 -0.596,2.725 -1.692,2.725 -2.198,0 -2.539,-0.482 -2.539,-3.85 l 0,-12.101 c 0,-1.844 0.679,-2.809 2.115,-2.809 1.187,0 3.644,0.646 4.062,0.646 1.358,0.003 1.358,-0.158 2.537,-0.158" />
          <path
             style="fill:#ffffff"
             id="path31"
             d="m 312.938,29.661 1.439,0 c 2.029,0 3.977,-1.443 3.977,-3.047 0,-2.006 -1.691,-3.93 -4.732,-3.93 -3.217,0 -5.166,1.604 -5.166,3.688 -0.002,1.926 1.947,3.289 4.482,3.289 m 7.539,0.561 -5.338,-0.078 c -5.248,0 -7.104,0.881 -7.104,3.604 0,2.408 2.789,4.734 5.664,4.734 1.359,0 2.377,-0.162 2.965,-0.561 l 2.199,-1.369 c 0.426,-0.24 0.51,-0.562 1.354,-0.562 2.287,0 -0.168,4.092 -6.768,4.092 -5.586,0 -9.312,-3.605 -9.312,-9.225 0,-5.924 3.219,-9.777 9.312,-9.777 7.275,0 8.885,5.615 8.885,7.699 0,0.96 -0.511,1.443 -1.857,1.443" />
        </g>
        <g
           id="g33">
          <path
             style="fill:#ffffff"
             id="path35"
             d="m 128.333,73.489 c 1.819,1.832 8.022,2.262 19.568,2.262 2.885,0 4.86,0.76 4.86,2.271 0,1.836 -1.672,2.81 -4.86,2.81 l -25.951,0 c -2.886,0 -4.404,-0.974 -4.404,-3.668 l 0,-26.57 c 0,-2.264 1.67,-3.339 4.555,-3.339 3.347,0 4.712,1.182 4.712,3.339 -0.154,22.854 -0.154,21.166 1.52,22.895" />
          <path
             style="fill:#ffffff"
             id="path37"
             d="m 170.233,77.788 c 0,2.051 -1.404,3.033 -3.688,3.033 -2.021,0 -3.3,-0.432 -3.3,-5.393 l 0,-24.565 c 0.047,-1.831 1.468,-2.905 3.494,-2.905 2.428,0 3.479,0.968 3.487,5.268 l 0.007,24.562 0,0 z" />
          <path
             style="fill:#ffffff"
             id="path39"
             d="m 192.502,50.125 9.865,12.67 c 3.957,5.16 8.647,6.728 11.688,6.728 3.797,0 5.928,-2.688 5.928,-6.049 l 0,-12.899 c 0,-1.566 0.604,-2.355 1.972,-2.355 1.221,0 1.823,1.121 1.823,3.257 l 0,27.243 c 0,1.689 -0.909,2.586 -2.887,2.586 l -1.213,0 c -1.826,0 -3.496,-0.787 -4.562,-2.021 L 200.245,63.92 c -1.674,-2.135 -4.104,-3.812 -6.383,-3.812 -4.104,0 -6.229,2.242 -6.229,6.168 l 0,11.998 c 0,1.568 -0.303,2.809 -1.978,2.809 -1.217,0 -1.815,-0.787 -1.815,-3.252 l 0,-27.256 c 0,-1.68 0.761,-2.58 2.272,-2.58 l 1.979,0 c 1.826,-0.002 3.191,0.447 4.411,2.13" />
          <path
             style="fill:#ffffff"
             id="path41"
             d="m 243.534,51.277 0,17.79 c 0,5.822 5.021,9.812 12.615,9.812 7.596,0 12.604,-3.99 12.604,-9.812 l 0,-17.79 c 0,-2.267 0.611,-3.558 3.496,-3.558 2.582,0 3.646,0.54 3.646,5.065 l 0,15.852 c 0,6.146 -4.254,13.582 -19.748,13.582 -14.588,0 -19.756,-6.254 -19.756,-13.582 l 0,-17.36 c 0,-2.05 0.762,-3.45 2.432,-3.45 l 1.98,0 c 1.821,-10e-4 2.731,1.184 2.731,3.451" />
          <path
             style="fill:#ffffff"
             id="path43"
             d="m 314.088,49.551 c 1.066,-1.073 2.43,-2.05 6.234,-2.05 1.668,0 2.582,0.105 2.582,1.076 0,0.979 -0.77,1.836 -4.258,5.071 -6.535,6.037 -7.293,7.542 -7.293,9.483 0,2.05 1.518,3.562 2.432,4.533 11.854,11.967 12.154,11.854 12.154,12.82 0,0.867 -0.764,1.188 -2.891,1.188 -4.562,0 -5.475,-0.539 -10.641,-6.57 -3.646,-4.312 -5.771,-5.396 -7.748,-5.396 -3.646,0 -5.013,0.856 -10.179,6.901 -4.562,5.278 -6.229,5.062 -9.269,5.062 -1.976,0 -3.038,-0.43 -3.038,-1.188 0,-0.854 2.125,-2.479 4.711,-5.17 -2.586,2.586 7.741,-7.65 8.2,-8.195 1.22,-1.398 1.978,-2.803 1.978,-3.988 0,-1.293 -1.362,-3.444 -2.127,-4.203 l -8.354,-8.303 c -3.037,-2.91 -0.148,-3.126 0.906,-3.126 5.172,0 5.479,0.219 10.031,5.394 2.275,2.585 4.252,3.773 6.53,3.773 1.521,0 3.495,-0.436 5.013,-1.832 1.535,-1.398 3.352,-3.663 5.027,-5.28" />
          <g
             id="g45">
            <path
               style="fill:#ffffff"
               id="path47"
               d="m 333.98,49.027 c -0.909,-0.976 -2.19,-1.515 -3.608,-1.515 -2.743,0 -4.895,2.148 -4.895,4.892 0,2.638 2.255,4.865 4.921,4.865 1.251,0 2.486,-0.492 3.396,-1.351 0.966,-0.914 1.497,-2.172 1.497,-3.543 0,-1.231 -0.479,-2.453 -1.311,-3.348 z m 0.559,3.461 c 0,2.384 -1.831,4.25 -4.167,4.25 -1.146,0 -2.188,-0.448 -2.94,-1.266 -0.756,-0.82 -1.173,-1.959 -1.173,-3.207 0,-2.406 1.804,-4.222 4.195,-4.222 1.13,0 2.169,0.459 2.925,1.293 0.747,0.827 1.16,1.946 1.16,3.152 z" />
            <path
               style="fill:#ffffff"
               id="path49"
               d="m 331.088,50.042 -1.516,0 c -0.881,0 -1.03,0.396 -1.03,1.281 l 0,2.723 c 0,0.166 0,0.668 0.362,0.668 0.268,0 0.302,-0.297 0.321,-0.494 0.006,-0.028 0.009,-0.057 0.013,-0.081 0.08,-0.527 0.341,-0.869 0.667,-0.869 0.453,0 0.727,0.403 1.062,0.974 0.252,0.422 0.378,0.502 0.521,0.502 0.145,0 0.223,-0.08 0.223,-0.226 0,-0.097 -0.058,-0.24 -0.126,-0.408 -0.084,-0.207 -0.179,-0.44 -0.179,-0.62 0,-0.441 0.146,-0.623 0.455,-0.962 0.429,-0.454 0.545,-0.663 0.545,-1.262 0.002,-0.62 -0.652,-1.226 -1.318,-1.226 z m 0.318,1.446 c 0,0.509 -0.436,0.861 -1.057,0.861 -0.611,0 -0.943,-0.459 -0.943,-0.892 0,-0.455 0.484,-0.888 1.001,-0.888 0.589,0.004 0.999,0.485 0.999,0.919 z" />
          </g>
        </g>
        <path
           style="fill:#ffffff"
           id="path51"
           d="M 51.564,0.177 C 25.425,-2.063 2.424,17.306 0.177,43.438 -2.063,69.573 17.3,92.577 43.441,94.819 69.58,97.065 92.582,77.7 94.825,51.562 97.065,25.429 77.704,2.425 51.564,0.177 Z m 31.9,61.751 c -1.086,1.244 -6.658,-5.69 -9.956,-6.694 -4.03,-1.222 -8.683,-3.274 -12.113,-4.705 0.711,2.802 1.405,8.778 1.364,12.757 -0.091,9.314 -3.412,20.072 -13.646,20.072 -10.089,0 -15.694,-8.395 -14.163,-17.574 0.82,-4.902 2.438,-10.904 2.271,-11.052 -0.009,-0.01 -1.476,-0.213 -2.97,-0.151 -1.813,0.071 -2.916,0.586 -5.2,0.83 -2.351,0.258 -4.87,1.25 -7.964,2.77 -3.535,1.729 -6.994,7.273 -8.088,5.562 -1.594,-2.498 3.917,-13.021 10.552,-17.625 5.998,-4.154 9.582,-6.188 11.059,-7.432 1.48,-1.25 3.013,-2.594 3.411,-4.197 0.229,-0.908 -0.226,-2.611 -0.681,-3.971 -0.32,-0.953 -1.532,-2.914 -2.439,-5.461 -0.906,-2.551 -0.229,-5.926 2.141,-8.404 2.368,-2.482 7.976,-2.639 11.252,-2.572 3.277,0.064 1.801,-0.242 4.47,-0.715 2.673,-0.471 3.688,0.025 5.277,0.766 0,0 0.109,0.869 -0.558,1.279 -0.608,0.365 -1.543,1.141 -2.954,1.977 -1.41,0.836 -2.967,2.873 -4.417,4.42 -1.453,1.539 -1.686,3.734 -1.283,5.256 0.359,1.359 2.324,2.984 3.531,4.432 1.757,1.512 3.632,2.994 3.632,2.994 0,0 5.062,2.615 11.033,6.803 14.558,10.195 18.911,17.772 16.439,20.635 z" />
      </g>
    </g>
  </g>
</svg>
